<?xml version="1.0" encoding="UTF-8" standalone="no"?>
<!DOCTYPE svg PUBLIC "-//W3C//DTD SVG 1.1//EN" "http://www.w3.org/Graphics/SVG/1.1/DTD/svg11.dtd">
<svg width="100%" height="100%" viewBox="0 0 355 349" version="1.1" xmlns="http://www.w3.org/2000/svg" xmlns:xlink="http://www.w3.org/1999/xlink" xml:space="preserve" style="fill-rule:evenodd;clip-rule:evenodd;stroke-linejoin:round;stroke-miterlimit:1.41421;">
    <g transform="matrix(1,0,0,1,-143,-80)">
        <g transform="matrix(1,0,0,1,-440.797,-184.348)">
            <g>
                <g>
                    <path d="M805.42,281.268C805.42,281.268 768.076,266.311 747.658,272.567C727.24,278.823 721.633,285.111 708.584,286.567C695.536,288.022 691.505,283.306 675.372,297.366C659.24,311.426 650.772,327.43 639.796,338.255C628.82,349.08 623.794,340.325 616.57,362.408C609.346,384.491 615.363,394.855 607.52,409.627C599.678,424.4 595.374,449.83 602.05,461.264C608.726,472.699 616.695,481.487 616.57,491.972C616.445,502.457 618.635,521.8 629.315,531.617C639.995,541.434 654.883,547.622 659.579,555.781C664.275,563.94 671.996,582.361 688.536,586.119C705.077,589.876 717.783,586.454 733.102,594.83C748.421,603.206 750.412,611.409 773.75,605.436C797.088,599.463 795.434,586.108 817.22,586.119C839.007,586.13 848.927,586.708 857.436,576.561C865.944,566.415 868.349,555.777 879.379,548.11C890.409,540.442 909.612,530.632 913.936,515.555C918.26,500.477 916.275,484.854 922.557,470.257C928.839,455.659 934.825,443.967 931.156,429.865C927.487,415.762 913.936,386.913 913.936,386.913C913.936,386.913 891.457,393.425 879.379,386.913C870.041,381.878 871.049,366.156 867.579,351.812C865.85,344.666 853.461,356.405 845.864,351.812C837.961,347.033 836.906,322.411 836.906,322.411L835.869,319.419C835.869,319.419 820.636,316.059 817.22,312.476C802.573,297.115 805.42,281.268 805.42,281.268Z" style="fill:rgb(46,73,94);"/>
                    <path d="M800.041,282.578C800.041,282.578 761.376,271.802 741.645,282.578C721.914,293.353 697.04,288.262 678.373,308.25C659.706,328.237 653.14,331.177 640.11,351.142C627.081,371.106 626.157,370.271 622.461,391.42C618.765,412.57 597.144,429.006 608.451,454.543C619.759,480.079 616.268,507.627 640.11,526.915C663.953,546.202 650.106,556.693 678.373,564.753C706.639,572.812 730.78,568.659 741.645,577.651C752.509,586.644 766.836,586.971 788.233,577.651C809.63,568.332 812.789,580.148 840.094,564.753C867.399,549.357 853.614,548.447 881.479,526.915C909.344,505.382 894.466,493.057 904.519,469.014C914.571,444.971 926.252,457.758 924.464,427.266C922.677,396.773 909.768,391.42 909.768,391.42C909.768,391.42 884.011,400.131 874.089,391.42C864.167,382.709 860.335,356.389 860.335,356.389C860.335,356.389 850.26,363.276 840.094,351.142C829.928,339.008 829.781,320.537 829.781,320.537C829.781,320.537 813.267,319.978 806.979,308.25C800.691,296.522 800.041,282.578 800.041,282.578Z" style="fill:rgb(0,196,141);fill-opacity:0.615686;"/>
                    <g transform="matrix(0.847341,0,0,0.847341,91.1808,73.1617)">
                        <path d="M689.705,356.347C698.483,356.347 712.537,368.288 711.339,375.334C710.14,382.38 700.04,406.153 689.705,409.725C678.114,413.731 664.349,409.523 654.829,399.021C647.852,391.325 647.452,380.208 659.132,368.534C670.812,356.86 680.927,356.347 689.705,356.347Z" style="fill:rgb(46,73,94);"/>
                        <path d="M688.511,370.51C688.511,370.51 696.437,385.105 688.511,394.43C680.584,403.754 664.32,398.925 660.039,394.43C655.758,389.934 650.769,381.423 660.039,374.975C669.308,368.527 672.887,364.205 680.073,363.346C687.26,362.488 688.511,370.51 688.511,370.51Z" style="fill:rgb(16,135,117);fill-opacity:0.45098;"/>
                    </g>
                    <g transform="matrix(0.713364,0,0,0.713364,286.84,133.836)">
                        <path d="M689.705,356.347C698.483,356.347 712.537,368.288 711.339,375.334C710.14,382.38 700.04,406.153 689.705,409.725C678.114,413.731 664.349,409.523 654.829,399.021C647.852,391.325 647.452,380.208 659.132,368.534C670.812,356.86 680.927,356.347 689.705,356.347Z" style="fill:rgb(46,73,94);"/>
                        <path d="M693.952,363.346C693.952,363.346 695.262,377.17 687.335,386.494C679.409,395.819 664.32,400.177 660.039,395.681C655.758,391.186 650.769,381.423 660.039,374.975C669.308,368.527 672.887,364.205 680.073,363.346C687.26,362.488 693.952,363.346 693.952,363.346Z" style="fill:rgb(16,135,117);fill-opacity:0.45098;"/>
                    </g>
                    <g transform="matrix(0.815793,0.140921,-0.140921,0.815793,326.075,49.9807)">
                        <path d="M689.705,356.347C698.483,356.347 712.537,368.288 711.339,375.334C710.14,382.38 700.04,406.153 689.705,409.725C678.114,413.731 664.349,409.523 654.829,399.021C647.852,391.325 647.452,380.208 659.132,368.534C670.812,356.86 680.927,356.347 689.705,356.347Z" style="fill:rgb(46,73,94);"/>
                        <path d="M688.262,370.1C688.262,370.1 695.262,377.17 687.335,386.494C679.409,395.819 664.32,400.177 660.039,395.681C655.758,391.186 650.769,381.423 660.039,374.975C669.308,368.527 672.887,364.205 680.073,363.346C687.26,362.488 688.262,370.1 688.262,370.1Z" style="fill:rgb(16,135,117);fill-opacity:0.45098;"/>
                    </g>
                    <g transform="matrix(0.807268,-0.183564,0.183564,0.807268,85.7419,330.641)">
                        <path d="M689.705,356.347C698.483,356.347 712.537,368.288 711.339,375.334C710.14,382.38 700.04,406.153 689.705,409.725C678.114,413.731 664.349,409.523 654.829,399.021C647.852,391.325 647.452,380.208 659.132,368.534C670.812,356.86 680.927,356.347 689.705,356.347Z" style="fill:rgb(46,73,94);"/>
                        <path d="M693.952,363.346C693.952,363.346 695.262,377.17 687.335,386.494C679.409,395.819 664.32,400.177 660.039,395.681C655.758,391.186 650.769,381.423 660.039,374.975C669.308,368.527 672.887,364.205 680.073,363.346C687.26,362.488 693.952,363.346 693.952,363.346Z" style="fill:rgb(16,135,117);fill-opacity:0.45098;"/>
                    </g>
                    <ellipse cx="670.084" cy="473.054" rx="7.232" ry="6.62" style="fill:rgb(46,73,94);"/>
                    <g transform="matrix(1.31794,0,0,1.36342,-151.187,-292.64)">
                        <ellipse cx="670.084" cy="473.054" rx="7.232" ry="6.62" style="fill:rgb(46,73,94);"/>
                    </g>
                    <g transform="matrix(0.902032,0,0,0.933164,215.444,-43.9628)">
                        <ellipse cx="670.084" cy="473.054" rx="7.232" ry="6.62" style="fill:rgb(0,197,142);"/>
                    </g>
                    <g transform="matrix(1.22084,0,0,1.26298,57.0449,-141.431)">
                        <ellipse cx="670.084" cy="473.054" rx="7.232" ry="6.62" style="fill:rgb(46,73,94);"/>
                    </g>
                    <g transform="matrix(1.22084,0,0,1.26298,8.44112,-79.6455)">
                        <ellipse cx="670.084" cy="473.054" rx="7.232" ry="6.62" style="fill:rgb(46,73,94);"/>
                    </g>
                    <g transform="matrix(1.22084,0,0,1.26298,-27.5876,-89.5298)">
                        <ellipse cx="670.084" cy="473.054" rx="7.232" ry="6.62" style="fill:rgb(0,197,142);"/>
                    </g>
                    <g transform="matrix(1.22084,0,0,1.26298,-101.68,-166.874)">
                        <ellipse cx="670.084" cy="473.054" rx="7.232" ry="6.62" style="fill:rgb(0,197,142);"/>
                    </g>
                    <g transform="matrix(1.28594,0,0,1.33032,41.2065,-265.155)">
                        <ellipse cx="670.084" cy="473.054" rx="7.232" ry="6.62" style="fill:rgb(0,197,142);"/>
                    </g>
                    <g transform="matrix(-1.22624,0.387268,-0.400634,-1.26856,1855.99,636.308)">
                        <ellipse cx="670.084" cy="473.054" rx="7.232" ry="6.62" style="fill:rgb(0,197,142);"/>
                    </g>
                    <g transform="matrix(0.486331,0,0,0.503116,556.151,117.583)">
                        <ellipse cx="670.084" cy="473.054" rx="7.232" ry="6.62" style="fill:rgb(0,197,142);"/>
                    </g>
                    <g transform="matrix(0.755971,0,0,0.782061,392.016,-30.3976)">
                        <ellipse cx="670.084" cy="473.054" rx="7.232" ry="6.62" style="fill:rgb(0,197,142);"/>
                    </g>
                    <g transform="matrix(-0.43159,0.136303,-0.141008,-0.446485,1221.15,418.514)">
                        <ellipse cx="670.084" cy="473.054" rx="7.232" ry="6.62" style="fill:rgb(0,197,142);"/>
                    </g>
                    <g transform="matrix(0.611838,0,0,0.632954,414.768,-11.6494)">
                        <ellipse cx="670.084" cy="473.054" rx="7.232" ry="6.62" style="fill:rgb(0,197,142);"/>
                    </g>
                    <g transform="matrix(0.914759,0,0,0.94633,106.499,-125.97)">
                        <ellipse cx="670.084" cy="473.054" rx="7.232" ry="6.62" style="fill:rgb(0,197,142);"/>
                    </g>
                </g>
            </g>
        </g>
    </g>
</svg>
